<svg xmlns="http://www.w3.org/2000/svg" width="45.992" height="48.002" viewBox="0 0 45.992 48.002">
  <g>
    <path d="M45.533,25.879c-4.231-6.6-4.494-8.447-4.5-8.545C39.14,1.25,26.139,0,22.2,0c-.363,0-.678.008-.923.015l-.349.006C19.4.021,8.656.335,3.9,8.525H.727A.727.727,0,0,0,0,9.252V35.97a.729.729,0,0,0,.727.729H8.5a7.17,7.17,0,0,1,.419.748c1.394,3.078,1.479,9.768,1.48,9.834a.729.729,0,0,0,.727.721h.008a.728.728,0,0,0,.72-.734c0-.287-.089-7.063-1.61-10.42-.024-.053-.056-.1-.082-.148h3.181a2.172,2.172,0,0,1,2.17,2.17.728.728,0,0,0,1.455,0,2.172,2.172,0,0,1,2.17-2.17H31.757a.728.728,0,0,0,.727-.729V9.25a.728.728,0,0,0-.727-.727H19.139a3.607,3.607,0,0,0-2.9,1.469,3.609,3.609,0,0,0-2.9-1.469H5.609c4.366-6.59,13.112-7.049,15.319-7.049.095,0,.226,0,.385-.008.235-.006.538-.014.887-.014,3.636,0,15.636,1.158,17.38,16,.011.2.23,2.184,4.748,9.234a1.289,1.289,0,0,1,.19.852,1.252,1.252,0,0,1-.668.752,32.807,32.807,0,0,1-3.923,1.863.728.728,0,0,0-.46.758c.005.053.569,5.328.078,7.906-.208,1.09-2.67,1.822-6.126,1.822a2.957,2.957,0,0,0-3.208,3.1v3.527a.728.728,0,1,0,1.455,0V43.742A1.55,1.55,0,0,1,33.419,42.1c2.608,0,7.057-.391,7.555-3.006a35.118,35.118,0,0,0-.006-7.787A32.772,32.772,0,0,0,44.58,29.55a2.624,2.624,0,0,0,1.36-1.7A2.681,2.681,0,0,0,45.533,25.879ZM16.969,12.149a2.173,2.173,0,0,1,2.17-2.171H31.03V35.242H19.139a3.613,3.613,0,0,0-2.17.723ZM13.344,9.978a2.173,2.173,0,0,1,2.17,2.171V35.965a3.613,3.613,0,0,0-2.17-.723H1.453V9.978Z" fill="#8A5E73"/>
    <path d="M4.605,15.109h7.756a.727.727,0,1,0,0-1.454H4.605a.727.727,0,1,0,0,1.454Z" fill="#8A5E73"/>
    <path d="M4.605,20.605h7.756a.728.728,0,1,0,0-1.456H4.605a.728.728,0,1,0,0,1.456Z" fill="#8A5E73"/>
    <path d="M4.605,26.1h7.756a.728.728,0,1,0,0-1.456H4.605a.728.728,0,1,0,0,1.456Z" fill="#8A5E73"/>
    <path d="M4.605,31.6h7.756a.728.728,0,1,0,0-1.456H4.605a.728.728,0,1,0,0,1.456Z" fill="#8A5E73"/>
    <path d="M20.121,15.109h7.756a.727.727,0,1,0,0-1.454H20.121a.727.727,0,1,0,0,1.454Z" fill="#8A5E73"/>
    <path d="M20.121,20.605h7.756a.728.728,0,1,0,0-1.456H20.121a.728.728,0,1,0,0,1.456Z" fill="#8A5E73"/>
    <path d="M20.121,26.1h7.756a.728.728,0,1,0,0-1.456H20.121a.728.728,0,1,0,0,1.456Z" fill="#8A5E73"/>
    <path d="M20.121,31.6H24a.728.728,0,0,0,0-1.456H20.121a.728.728,0,1,0,0,1.456Z" fill="#8A5E73"/>
  </g>
</svg>
